<svg xmlns="http://www.w3.org/2000/svg" version="1.1" xmlns:xlink="http://www.w3.org/1999/xlink" xmlns:svgjs="http://svgjs.dev/svgjs" width="1000" height="1000"><style>
    #light-icon {
      display: inline;
    }
    #dark-icon {
      display: none;
    }

    @media (prefers-color-scheme: dark) {
      #light-icon {
        display: none;
      }
      #dark-icon {
        display: inline;
      }
    }
  </style><g id="light-icon"><svg xmlns="http://www.w3.org/2000/svg" version="1.1" xmlns:xlink="http://www.w3.org/1999/xlink" xmlns:svgjs="http://svgjs.dev/svgjs" width="1000" height="1000"><g clip-path="url(#SvgjsClipPath1124)"><rect width="1000" height="1000" fill="#f3efe7"></rect><g transform="matrix(3.690036900369004,0,0,3.690036900369004,0,0)"><svg xmlns="http://www.w3.org/2000/svg" version="1.1" xmlns:xlink="http://www.w3.org/1999/xlink" xmlns:svgjs="http://svgjs.dev/svgjs" width="271" height="271"><svg width="271" height="271" viewBox="0 0 271 271" fill="none" xmlns="http://www.w3.org/2000/svg">
<g clip-path="url(#clip0_21_1070)">
<circle cx="135.5" cy="135.5" r="135.5" fill="#F3EFE7"></circle>
<path d="M86.6355 93.8466C88.675 91.8258 93.6697 91.0966 96.1046 93.8466C99.1222 97.034 98.1441 102.242 96.1046 104.43L64.6173 135.054L95.3346 164.179C97.3741 166.2 97.6446 171.971 95.3346 174.262C92.5459 177.033 86.8436 176.595 84.9498 174.7L49.0505 138.888C48.0758 137.904 47.5288 136.575 47.5288 135.19C47.5288 133.804 48.0758 132.475 49.0505 131.492L86.6355 93.8674V93.8466ZM184.365 93.8466L221.95 131.471C222.924 132.454 223.471 133.784 223.471 135.169C223.471 136.554 222.924 137.883 221.95 138.867L186.071 174.72C184.177 176.595 178.787 177.783 175.666 174.72C172.731 171.804 173.647 165.804 175.666 163.783L206.508 135.096L174.667 104.138C172.627 101.951 171.961 96.5549 174.667 93.8674C177.31 91.2633 182.325 91.8466 184.365 93.8674V93.8466ZM145.781 86.3467C146.801 83.6384 151.858 81.9301 155.083 83.1384C158.163 84.2842 159.974 88.555 159.142 91.2633L125.011 185.22C124.012 187.929 119.143 189.012 116.416 187.991C113.524 186.991 110.381 182.991 111.422 180.304L145.76 86.3467H145.781Z" fill="#9ACD93"></path>
</g>
<defs>
<clipPath id="clip0_21_1070">
<rect width="271" height="271" fill="white"></rect>
</clipPath>
<clipPath id="SvgjsClipPath1124"><rect width="1000" height="1000" x="0" y="0" rx="500" ry="500"></rect></clipPath></defs>
</svg></svg></g></g></svg></g><g id="dark-icon"><svg xmlns="http://www.w3.org/2000/svg" version="1.1" xmlns:xlink="http://www.w3.org/1999/xlink" xmlns:svgjs="http://svgjs.dev/svgjs" width="1000" height="1000"><g clip-path="url(#SvgjsClipPath1125)"><rect width="1000" height="1000" fill="#f3efe7"></rect><g transform="matrix(3.690036900369004,0,0,3.690036900369004,0,0)"><svg xmlns="http://www.w3.org/2000/svg" version="1.1" xmlns:xlink="http://www.w3.org/1999/xlink" xmlns:svgjs="http://svgjs.dev/svgjs" width="271" height="271"><svg width="271" height="271" viewBox="0 0 271 271" fill="none" xmlns="http://www.w3.org/2000/svg">
<g clip-path="url(#clip0_21_1070)">
<circle cx="135.5" cy="135.5" r="135.5" fill="#F3EFE7"></circle>
<path d="M86.6355 93.8466C88.675 91.8258 93.6697 91.0966 96.1046 93.8466C99.1222 97.034 98.1441 102.242 96.1046 104.43L64.6173 135.054L95.3346 164.179C97.3741 166.2 97.6446 171.971 95.3346 174.262C92.5459 177.033 86.8436 176.595 84.9498 174.7L49.0505 138.888C48.0758 137.904 47.5288 136.575 47.5288 135.19C47.5288 133.804 48.0758 132.475 49.0505 131.492L86.6355 93.8674V93.8466ZM184.365 93.8466L221.95 131.471C222.924 132.454 223.471 133.784 223.471 135.169C223.471 136.554 222.924 137.883 221.95 138.867L186.071 174.72C184.177 176.595 178.787 177.783 175.666 174.72C172.731 171.804 173.647 165.804 175.666 163.783L206.508 135.096L174.667 104.138C172.627 101.951 171.961 96.5549 174.667 93.8674C177.31 91.2633 182.325 91.8466 184.365 93.8674V93.8466ZM145.781 86.3467C146.801 83.6384 151.858 81.9301 155.083 83.1384C158.163 84.2842 159.974 88.555 159.142 91.2633L125.011 185.22C124.012 187.929 119.143 189.012 116.416 187.991C113.524 186.991 110.381 182.991 111.422 180.304L145.76 86.3467H145.781Z" fill="#9ACD93"></path>
</g>
<defs>
<clipPath id="clip0_21_1070">
<rect width="271" height="271" fill="white"></rect>
</clipPath>
<clipPath id="SvgjsClipPath1125"><rect width="1000" height="1000" x="0" y="0" rx="500" ry="500"></rect></clipPath></defs>
</svg></svg></g></g></svg></g></svg>